<mxfile host="Electron" modified="2024-01-18T08:54:23.551Z" agent="Mozilla/5.0 (Windows NT 10.0; Win64; x64) AppleWebKit/537.36 (KHTML, like Gecko) draw.io/22.1.11 Chrome/114.0.5735.289 Electron/25.9.8 Safari/537.36" etag="iwEr8OuNR7DxJ922dPVa" version="22.1.11" type="device">
  <diagram name="第 1 页" id="vjxuDnWtq1TLd-UN4-VX">
    <mxGraphModel dx="1434" dy="844" grid="1" gridSize="10" guides="1" tooltips="1" connect="1" arrows="1" fold="1" page="1" pageScale="1" pageWidth="827" pageHeight="1169" math="0" shadow="0">
      <root>
        <mxCell id="0" />
        <mxCell id="1" parent="0" />
        <mxCell id="8s3Xzhja4rSbbx9bNAWa-17" style="edgeStyle=none;rounded=0;orthogonalLoop=1;jettySize=auto;html=1;endArrow=open;endFill=0;" edge="1" parent="1" source="8s3Xzhja4rSbbx9bNAWa-1" target="8s3Xzhja4rSbbx9bNAWa-14">
          <mxGeometry relative="1" as="geometry" />
        </mxCell>
        <mxCell id="8s3Xzhja4rSbbx9bNAWa-18" style="edgeStyle=none;rounded=0;orthogonalLoop=1;jettySize=auto;html=1;endArrow=open;endFill=0;" edge="1" parent="1" source="8s3Xzhja4rSbbx9bNAWa-1" target="8s3Xzhja4rSbbx9bNAWa-8">
          <mxGeometry relative="1" as="geometry" />
        </mxCell>
        <mxCell id="8s3Xzhja4rSbbx9bNAWa-19" style="edgeStyle=none;rounded=0;orthogonalLoop=1;jettySize=auto;html=1;endArrow=open;endFill=0;" edge="1" parent="1" source="8s3Xzhja4rSbbx9bNAWa-1" target="8s3Xzhja4rSbbx9bNAWa-11">
          <mxGeometry relative="1" as="geometry" />
        </mxCell>
        <mxCell id="8s3Xzhja4rSbbx9bNAWa-1" value="ISoldier" style="swimlane;fontStyle=1;align=center;verticalAlign=top;childLayout=stackLayout;horizontal=1;startSize=26;horizontalStack=0;resizeParent=1;resizeParentMax=0;resizeLast=0;collapsible=1;marginBottom=0;whiteSpace=wrap;html=1;" vertex="1" parent="1">
          <mxGeometry y="320" width="160" height="60" as="geometry" />
        </mxCell>
        <mxCell id="8s3Xzhja4rSbbx9bNAWa-3" value="" style="line;strokeWidth=1;fillColor=none;align=left;verticalAlign=middle;spacingTop=-1;spacingLeft=3;spacingRight=3;rotatable=0;labelPosition=right;points=[];portConstraint=eastwest;strokeColor=inherit;" vertex="1" parent="8s3Xzhja4rSbbx9bNAWa-1">
          <mxGeometry y="26" width="160" height="8" as="geometry" />
        </mxCell>
        <mxCell id="8s3Xzhja4rSbbx9bNAWa-4" value="+Attack(target)" style="text;strokeColor=none;fillColor=none;align=left;verticalAlign=top;spacingLeft=4;spacingRight=4;overflow=hidden;rotatable=0;points=[[0,0.5],[1,0.5]];portConstraint=eastwest;whiteSpace=wrap;html=1;" vertex="1" parent="8s3Xzhja4rSbbx9bNAWa-1">
          <mxGeometry y="34" width="160" height="26" as="geometry" />
        </mxCell>
        <mxCell id="8s3Xzhja4rSbbx9bNAWa-20" style="edgeStyle=none;rounded=0;orthogonalLoop=1;jettySize=auto;html=1;endArrow=open;endFill=0;" edge="1" parent="1" source="8s3Xzhja4rSbbx9bNAWa-5" target="8s3Xzhja4rSbbx9bNAWa-14">
          <mxGeometry relative="1" as="geometry" />
        </mxCell>
        <mxCell id="8s3Xzhja4rSbbx9bNAWa-21" style="edgeStyle=none;rounded=0;orthogonalLoop=1;jettySize=auto;html=1;endArrow=open;endFill=0;" edge="1" parent="1" source="8s3Xzhja4rSbbx9bNAWa-5" target="8s3Xzhja4rSbbx9bNAWa-8">
          <mxGeometry relative="1" as="geometry" />
        </mxCell>
        <mxCell id="8s3Xzhja4rSbbx9bNAWa-22" style="edgeStyle=none;rounded=0;orthogonalLoop=1;jettySize=auto;html=1;endArrow=open;endFill=0;" edge="1" parent="1" source="8s3Xzhja4rSbbx9bNAWa-5" target="8s3Xzhja4rSbbx9bNAWa-11">
          <mxGeometry relative="1" as="geometry" />
        </mxCell>
        <mxCell id="8s3Xzhja4rSbbx9bNAWa-5" value="IEnemy" style="swimlane;fontStyle=1;align=center;verticalAlign=top;childLayout=stackLayout;horizontal=1;startSize=26;horizontalStack=0;resizeParent=1;resizeParentMax=0;resizeLast=0;collapsible=1;marginBottom=0;whiteSpace=wrap;html=1;" vertex="1" parent="1">
          <mxGeometry y="460" width="160" height="60" as="geometry" />
        </mxCell>
        <mxCell id="8s3Xzhja4rSbbx9bNAWa-6" value="" style="line;strokeWidth=1;fillColor=none;align=left;verticalAlign=middle;spacingTop=-1;spacingLeft=3;spacingRight=3;rotatable=0;labelPosition=right;points=[];portConstraint=eastwest;strokeColor=inherit;" vertex="1" parent="8s3Xzhja4rSbbx9bNAWa-5">
          <mxGeometry y="26" width="160" height="8" as="geometry" />
        </mxCell>
        <mxCell id="8s3Xzhja4rSbbx9bNAWa-7" value="+Attack(target)" style="text;strokeColor=none;fillColor=none;align=left;verticalAlign=top;spacingLeft=4;spacingRight=4;overflow=hidden;rotatable=0;points=[[0,0.5],[1,0.5]];portConstraint=eastwest;whiteSpace=wrap;html=1;" vertex="1" parent="8s3Xzhja4rSbbx9bNAWa-5">
          <mxGeometry y="34" width="160" height="26" as="geometry" />
        </mxCell>
        <mxCell id="8s3Xzhja4rSbbx9bNAWa-8" value="WeaponRifle" style="swimlane;fontStyle=1;align=center;verticalAlign=top;childLayout=stackLayout;horizontal=1;startSize=26;horizontalStack=0;resizeParent=1;resizeParentMax=0;resizeLast=0;collapsible=1;marginBottom=0;whiteSpace=wrap;html=1;" vertex="1" parent="1">
          <mxGeometry x="280" y="390" width="160" height="60" as="geometry" />
        </mxCell>
        <mxCell id="8s3Xzhja4rSbbx9bNAWa-9" value="" style="line;strokeWidth=1;fillColor=none;align=left;verticalAlign=middle;spacingTop=-1;spacingLeft=3;spacingRight=3;rotatable=0;labelPosition=right;points=[];portConstraint=eastwest;strokeColor=inherit;" vertex="1" parent="8s3Xzhja4rSbbx9bNAWa-8">
          <mxGeometry y="26" width="160" height="8" as="geometry" />
        </mxCell>
        <mxCell id="8s3Xzhja4rSbbx9bNAWa-10" value="+Fire(target)" style="text;strokeColor=none;fillColor=none;align=left;verticalAlign=top;spacingLeft=4;spacingRight=4;overflow=hidden;rotatable=0;points=[[0,0.5],[1,0.5]];portConstraint=eastwest;whiteSpace=wrap;html=1;" vertex="1" parent="8s3Xzhja4rSbbx9bNAWa-8">
          <mxGeometry y="34" width="160" height="26" as="geometry" />
        </mxCell>
        <mxCell id="8s3Xzhja4rSbbx9bNAWa-11" value="WeaponRocket" style="swimlane;fontStyle=1;align=center;verticalAlign=top;childLayout=stackLayout;horizontal=1;startSize=26;horizontalStack=0;resizeParent=1;resizeParentMax=0;resizeLast=0;collapsible=1;marginBottom=0;whiteSpace=wrap;html=1;" vertex="1" parent="1">
          <mxGeometry x="280" y="520" width="160" height="60" as="geometry" />
        </mxCell>
        <mxCell id="8s3Xzhja4rSbbx9bNAWa-12" value="" style="line;strokeWidth=1;fillColor=none;align=left;verticalAlign=middle;spacingTop=-1;spacingLeft=3;spacingRight=3;rotatable=0;labelPosition=right;points=[];portConstraint=eastwest;strokeColor=inherit;" vertex="1" parent="8s3Xzhja4rSbbx9bNAWa-11">
          <mxGeometry y="26" width="160" height="8" as="geometry" />
        </mxCell>
        <mxCell id="8s3Xzhja4rSbbx9bNAWa-13" value="+Fire(target)" style="text;strokeColor=none;fillColor=none;align=left;verticalAlign=top;spacingLeft=4;spacingRight=4;overflow=hidden;rotatable=0;points=[[0,0.5],[1,0.5]];portConstraint=eastwest;whiteSpace=wrap;html=1;" vertex="1" parent="8s3Xzhja4rSbbx9bNAWa-11">
          <mxGeometry y="34" width="160" height="26" as="geometry" />
        </mxCell>
        <mxCell id="8s3Xzhja4rSbbx9bNAWa-14" value="WeaponGun" style="swimlane;fontStyle=1;align=center;verticalAlign=top;childLayout=stackLayout;horizontal=1;startSize=26;horizontalStack=0;resizeParent=1;resizeParentMax=0;resizeLast=0;collapsible=1;marginBottom=0;whiteSpace=wrap;html=1;" vertex="1" parent="1">
          <mxGeometry x="280" y="260" width="160" height="60" as="geometry" />
        </mxCell>
        <mxCell id="8s3Xzhja4rSbbx9bNAWa-15" value="" style="line;strokeWidth=1;fillColor=none;align=left;verticalAlign=middle;spacingTop=-1;spacingLeft=3;spacingRight=3;rotatable=0;labelPosition=right;points=[];portConstraint=eastwest;strokeColor=inherit;" vertex="1" parent="8s3Xzhja4rSbbx9bNAWa-14">
          <mxGeometry y="26" width="160" height="8" as="geometry" />
        </mxCell>
        <mxCell id="8s3Xzhja4rSbbx9bNAWa-16" value="+Fire(target)" style="text;strokeColor=none;fillColor=none;align=left;verticalAlign=top;spacingLeft=4;spacingRight=4;overflow=hidden;rotatable=0;points=[[0,0.5],[1,0.5]];portConstraint=eastwest;whiteSpace=wrap;html=1;" vertex="1" parent="8s3Xzhja4rSbbx9bNAWa-14">
          <mxGeometry y="34" width="160" height="26" as="geometry" />
        </mxCell>
      </root>
    </mxGraphModel>
  </diagram>
</mxfile>
